<svg width="16" height="16" viewBox="0 0 16 16" fill="none" xmlns="http://www.w3.org/2000/svg">
<g clip-path="url(#clip0_48_2767)">
<path d="M8.00001 0.320068C3.75841 0.320068 0.320007 3.75847 0.320007 8.00007C0.320007 12.2417 3.75841 15.6801 8.00001 15.6801C12.2416 15.6801 15.68 12.2417 15.68 8.00007C15.68 3.75847 12.2416 0.320068 8.00001 0.320068ZM10.9536 8.98487C10.9536 8.98487 11.6328 9.65527 11.8 9.96647C11.8048 9.97287 11.8072 9.97927 11.8088 9.98247C11.8768 10.0969 11.8928 10.1857 11.8592 10.2521C11.8032 10.3625 11.6112 10.4169 11.5456 10.4217H10.3456C10.2624 10.4217 10.088 10.4001 9.87681 10.2545C9.71441 10.1409 9.55441 9.95447 9.39841 9.77287C9.16561 9.50247 8.96401 9.26887 8.76081 9.26887C8.735 9.26882 8.70935 9.27287 8.68481 9.28087C8.53121 9.33047 8.33441 9.54967 8.33441 10.1337C8.33441 10.3161 8.19041 10.4209 8.08881 10.4209H7.53921C7.35201 10.4209 6.37681 10.3553 5.51281 9.44407C4.45521 8.32807 3.50321 6.08967 3.49521 6.06887C3.43521 5.92407 3.55921 5.84647 3.69441 5.84647H4.90641C5.06801 5.84647 5.12081 5.94487 5.15761 6.03207C5.20081 6.13367 5.35921 6.53767 5.61921 6.99207C6.04081 7.73287 6.29921 8.03367 6.50641 8.03367C6.54526 8.03321 6.58342 8.02333 6.61761 8.00487C6.88801 7.85447 6.83761 6.89047 6.82561 6.69047C6.82561 6.65287 6.82481 6.25927 6.68641 6.07047C6.58721 5.93367 6.41841 5.88167 6.31601 5.86247C6.35745 5.80528 6.41206 5.7589 6.47521 5.72727C6.66081 5.63447 6.99521 5.62087 7.32721 5.62087H7.51201C7.87201 5.62567 7.96481 5.64887 8.09521 5.68167C8.35921 5.74487 8.36481 5.91527 8.34161 6.49847C8.33441 6.66407 8.32721 6.85127 8.32721 7.07207C8.32721 7.12007 8.32481 7.17127 8.32481 7.22567C8.31681 7.52247 8.30721 7.85927 8.51681 7.99767C8.54415 8.01481 8.57574 8.02396 8.60801 8.02407C8.68081 8.02407 8.90001 8.02407 9.49361 7.00567C9.67668 6.67788 9.83576 6.33725 9.96961 5.98647C9.98161 5.96567 10.0168 5.90167 10.0584 5.87687C10.0891 5.86122 10.1231 5.85326 10.1576 5.85367H11.5824C11.7376 5.85367 11.844 5.87687 11.864 5.93687C11.8992 6.03207 11.8576 6.32247 11.2072 7.20327L10.9168 7.58647C10.3272 8.35927 10.3272 8.39847 10.9536 8.98487Z" fill="white"/>
</g>
<defs>
<clipPath id="clip0_48_2767">
<rect width="16" height="16" fill="white"/>
</clipPath>
</defs>
</svg>
