<svg width="16" height="16" viewBox="0 0 16 16" fill="none" xmlns="http://www.w3.org/2000/svg">
<path d="M6.66665 9.99992L10.1266 7.99992L6.66665 5.99992V9.99992ZM14.3733 4.77992C14.46 5.09325 14.52 5.51325 14.56 6.04658C14.6066 6.57992 14.6266 7.03992 14.6266 7.43992L14.6666 7.99992C14.6666 9.45992 14.56 10.5333 14.3733 11.2199C14.2066 11.8199 13.82 12.2066 13.22 12.3733C12.9066 12.4599 12.3333 12.5199 11.4533 12.5599C10.5866 12.6066 9.79331 12.6266 9.05998 12.6266L7.99998 12.6666C5.20665 12.6666 3.46665 12.5599 2.77998 12.3733C2.17998 12.2066 1.79331 11.8199 1.62665 11.2199C1.53998 10.9066 1.47998 10.4866 1.43998 9.95325C1.39331 9.41992 1.37331 8.95992 1.37331 8.55992L1.33331 7.99992C1.33331 6.53992 1.43998 5.46659 1.62665 4.77992C1.79331 4.17992 2.17998 3.79325 2.77998 3.62659C3.09331 3.53992 3.66665 3.47992 4.54665 3.43992C5.41331 3.39325 6.20665 3.37325 6.93998 3.37325L7.99998 3.33325C10.7933 3.33325 12.5333 3.43992 13.22 3.62659C13.82 3.79325 14.2066 4.17992 14.3733 4.77992Z" fill="white"/>
</svg>
